<mxfile host="65bd71144e">
    <diagram id="FaRLDlZ26xI9nCpwLlgF" name="Page-1">
        <mxGraphModel dx="1842" dy="1205" grid="1" gridSize="10" guides="1" tooltips="1" connect="1" arrows="1" fold="1" page="1" pageScale="1" pageWidth="850" pageHeight="1100" math="0" shadow="0">
            <root>
                <mxCell id="0"/>
                <mxCell id="1" parent="0"/>
                <mxCell id="o_hdupbG9bB5CAavNhAO-1" value="" style="outlineConnect=0;fontColor=#232F3E;gradientColor=#945DF2;gradientDirection=north;fillColor=#5A30B5;strokeColor=#ffffff;dashed=0;verticalLabelPosition=bottom;verticalAlign=top;align=center;html=1;fontSize=12;fontStyle=0;aspect=fixed;shape=mxgraph.aws4.resourceIcon;resIcon=mxgraph.aws4.cloudfront;" parent="1" vertex="1">
                    <mxGeometry x="89" y="290" width="78" height="78" as="geometry"/>
                </mxCell>
                <mxCell id="o_hdupbG9bB5CAavNhAO-2" value="&lt;font color=&quot;#ffffff&quot;&gt;API Gateway&lt;/font&gt;" style="outlineConnect=0;fontColor=#232F3E;gradientColor=#945DF2;gradientDirection=north;fillColor=#5A30B5;strokeColor=#ffffff;dashed=0;verticalLabelPosition=bottom;verticalAlign=top;align=center;html=1;fontSize=12;fontStyle=0;aspect=fixed;shape=mxgraph.aws4.resourceIcon;resIcon=mxgraph.aws4.api_gateway;" parent="1" vertex="1">
                    <mxGeometry x="259" y="290" width="80" height="80" as="geometry"/>
                </mxCell>
                <mxCell id="o_hdupbG9bB5CAavNhAO-3" value="" style="outlineConnect=0;fontColor=#232F3E;gradientColor=#60A337;gradientDirection=north;fillColor=#277116;strokeColor=#ffffff;dashed=0;verticalLabelPosition=bottom;verticalAlign=top;align=center;html=1;fontSize=12;fontStyle=0;aspect=fixed;shape=mxgraph.aws4.resourceIcon;resIcon=mxgraph.aws4.s3;" parent="1" vertex="1">
                    <mxGeometry x="659" y="290" width="78" height="78" as="geometry"/>
                </mxCell>
                <mxCell id="o_hdupbG9bB5CAavNhAO-4" value="" style="outlineConnect=0;fontColor=#232F3E;gradientColor=#F78E04;gradientDirection=north;fillColor=#D05C17;strokeColor=#ffffff;dashed=0;verticalLabelPosition=bottom;verticalAlign=top;align=center;html=1;fontSize=12;fontStyle=0;aspect=fixed;shape=mxgraph.aws4.resourceIcon;resIcon=mxgraph.aws4.lambda;" parent="1" vertex="1">
                    <mxGeometry x="410" y="290" width="78" height="78" as="geometry"/>
                </mxCell>
                <mxCell id="o_hdupbG9bB5CAavNhAO-5" value="" style="outlineConnect=0;fontColor=#232F3E;gradientColor=#F54749;gradientDirection=north;fillColor=#C7131F;strokeColor=#ffffff;dashed=0;verticalLabelPosition=bottom;verticalAlign=top;align=center;html=1;fontSize=12;fontStyle=0;aspect=fixed;shape=mxgraph.aws4.resourceIcon;resIcon=mxgraph.aws4.cognito;" parent="1" vertex="1">
                    <mxGeometry x="259" y="80" width="78" height="78" as="geometry"/>
                </mxCell>
                <mxCell id="o_hdupbG9bB5CAavNhAO-8" value="" style="endArrow=classic;html=1;" parent="1" source="o_hdupbG9bB5CAavNhAO-1" target="o_hdupbG9bB5CAavNhAO-2" edge="1">
                    <mxGeometry width="50" height="50" relative="1" as="geometry">
                        <mxPoint x="179" y="250" as="sourcePoint"/>
                        <mxPoint x="229" y="200" as="targetPoint"/>
                    </mxGeometry>
                </mxCell>
                <mxCell id="o_hdupbG9bB5CAavNhAO-9" value="" style="endArrow=classic;startArrow=classic;html=1;" parent="1" source="o_hdupbG9bB5CAavNhAO-2" target="o_hdupbG9bB5CAavNhAO-5" edge="1">
                    <mxGeometry width="50" height="50" relative="1" as="geometry">
                        <mxPoint x="389" y="360" as="sourcePoint"/>
                        <mxPoint x="439" y="310" as="targetPoint"/>
                    </mxGeometry>
                </mxCell>
                <mxCell id="o_hdupbG9bB5CAavNhAO-10" value="" style="endArrow=classic;html=1;" parent="1" source="o_hdupbG9bB5CAavNhAO-2" target="o_hdupbG9bB5CAavNhAO-4" edge="1">
                    <mxGeometry width="50" height="50" relative="1" as="geometry">
                        <mxPoint x="9" y="520" as="sourcePoint"/>
                        <mxPoint x="59" y="470" as="targetPoint"/>
                    </mxGeometry>
                </mxCell>
                <mxCell id="o_hdupbG9bB5CAavNhAO-11" value="" style="endArrow=classic;html=1;" parent="1" source="o_hdupbG9bB5CAavNhAO-4" target="o_hdupbG9bB5CAavNhAO-3" edge="1">
                    <mxGeometry width="50" height="50" relative="1" as="geometry">
                        <mxPoint x="299" y="600" as="sourcePoint"/>
                        <mxPoint x="349" y="550" as="targetPoint"/>
                    </mxGeometry>
                </mxCell>
                <mxCell id="o_hdupbG9bB5CAavNhAO-12" value="" style="outlineConnect=0;dashed=0;verticalLabelPosition=bottom;verticalAlign=top;align=center;html=1;shape=mxgraph.aws3.dynamo_db;fillColor=#2E73B8;gradientColor=none;" parent="1" vertex="1">
                    <mxGeometry x="689" y="130" width="72" height="81" as="geometry"/>
                </mxCell>
                <mxCell id="o_hdupbG9bB5CAavNhAO-13" value="" style="endArrow=classic;html=1;" parent="1" source="o_hdupbG9bB5CAavNhAO-4" target="o_hdupbG9bB5CAavNhAO-12" edge="1">
                    <mxGeometry width="50" height="50" relative="1" as="geometry">
                        <mxPoint x="109" y="490" as="sourcePoint"/>
                        <mxPoint x="159" y="440" as="targetPoint"/>
                    </mxGeometry>
                </mxCell>
            </root>
        </mxGraphModel>
    </diagram>
</mxfile>